<svg xmlns="http://www.w3.org/2000/svg" xmlns:xlink="http://www.w3.org/1999/xlink" viewBox="0 0 928 994">
  <g id="Layer_0_Image" data-name="Layer 0 Image">
    <image id="Layer_0_Image-2" data-name="Layer 0 Image" width="928" height="994" xlink:href="bear-white1.png"/>
  </g>
  <g id="body">
    <path d="M730,218h-4c-4.14,6.18-11.84,14.92-18,19-3.62,2.4-7.83,1-10,5-9,9.84-1.4,39.23-7,52-2,4.55-7.45,9.37-9,14v8a93.14,93.14,0,0,1-9,22c-1.2,2-4.68,3.89-6,6-6.94,11.05-12.7,21.33-20,32-3.29,4.8-7.22,7-9,14,13.22,1.16,19.12,11.69,28,17l12,4c29.71,19.73,41.83,43.54,52,83,2.48,9.61,7.22,32.81,4,46-3.56,14.6-3.35,34.74-9,48-5.23,12.26-14.93,27.88-12,44,2.07,1.28,2.3,2.08,5,3,4.38,2.58,10.77-.93,17-1,8.91-.1,12.93-2.49,19-4h20c3.58-.87,10-3.46,16-2,7.15,1.73,14,6.14,20,8,3.14,1,5.66-.38,8,1l7,8c1.63.69,10.25-.16,13,0,4.25,6.51,10.83,12.29,15,19,2.54,4.09,3,8.47,6,12,2.45,2.93,7.44,4.14,10,7s2.75,7.53,5,11c1.58,2.43,5.71,5.45,7,8,.67,3,1.33,6,2,9,1.28,2.59,4,5.69,5,9v6c1.65,4.72,6.53,8.43,8,14v14c2,8.13,8.77,16.82,6,28s-2.47,25.58-7,36c-1.56,3.6-5.59,8.27-7,12q-2,12-4,24c-4.2,10.48-7,5.48-6,22h-6c-.62,10.7-3.13,12.91-4,24h-6c-.26,10.33-5.53,12.56-9,19-2.32,4.31-1.58,8.38-4,13-1.86,3.55-7.18,6.18-10,9-5.58,5.59-10.09,12.8-16,18-4,3.55-9.48,3.81-15,6-3.71,1.48-6.79,5-10,7,.47,3.35.51,2.65,0,6-14.8,1.18-34.66,4.76-48,8H684c-5.67-1.39-12.62-4.66-18-6-7.17-1.79-16.87-.76-22-2H626c-7.3-2.32-18.34-6.23-28-7-8.17-12.81-17.15-29-28-39,0-2-9.82-27.58-7-19-21.33,0-35.67,13-57,13-7.62,1.81-27.51,5.14-38,2-5.62-1.68-8.11-8.29-14-10H434c-9.37-2.29-27.53-2.86-36-7-8.66-4.23-15.31-16-25-18-6.51,12-5.63,30.71-12,43-2.75,5.29-11.53,7.18-16,11-17.62,15.06-49.38,32.8-75,30-6.43,3-10.36,9-18,10-5.11,2.35-10.63-3.21-16-4-5,4.68-18.51,3-28,3-23.64,0-43.25-1.77-68-2-2.42-3.24-8.11-10.61-12-12H118c-10.79-2.68-20.57-6-27-13-26.62-29.07-48-68.57-59-113-3.51-14.12,1.68-28.67-2-44-2.36-9.85-.14-15.71,0-26V756c2.59-10.52,9-22.4,10-32-8.2-7.66-20.77-12.82-25-24-3.69-9.77-4.91-20.8-3-30,1.4-6.73-3.64-11.41-1-20,2-6.39,3.17-22.25,6-28,.86-1.75,4.21-3.78,5-6,.33-3.33.67-6.67,1-10a149.12,149.12,0,0,1,8-16c1.21-2,4.68-3.88,6-6,3.56-5.69,4.26-12.43,8-18,10.82-16.13,27.32-28.63,40-43,4.24-4.81,5.32-11.7,10-16,9.51-8.74,22.26-13.45,32-22,2.48-2.18,4.24-6.1,7-8,4.71-3.24,10.69-4.33,15-8,16.18-13.78,32-21.61,52-32,4.68-2.43,10-7,15-9,6.57-2.6,11.06-2.36,18-5,4.44-1.69,8.83-5.56,14-7,7.95-2.21,17.11-1.27,24-4a14.17,14.17,0,0,0,1-4,245.8,245.8,0,0,1-60-66c-1.32-2.1-4.82-4-6-6-3.3-5.62-3.51-11.79-6-18-2.9-7.25-8.94-14.84-12-22-5.52-12.91-3.56-35.8-7-50-1.25-5.15,1.34-12.28-1-16-3.77-11-18.5-12.87-24-22-3.22-5.35-3.05-11.21-6-17-5-9.83-12-21.3-15-33V144c-5.22-21.85,6.45-47.24,15-62,2.1-3.62,1.42-8,4-11,2.45-2.8,7.52-5.22,10-8,2.83-3.17,4-7.08,7-10l5-3c1.5-1.86.65-3.81,2-6,4.17-6.76,28.87-22.95,37-26,6.17-2.32,16.18-2.6,22-4,20.45-4.92,43.49,5.21,56,10,6.05,2.31,11.94,10.44,22,8,7.85-1.9,11.43-8.43,18-11,10.1-4,18.52-5.22,27-10,4.28-2.41,15.76-.15,20-2,37.53-3.08,56.67-4,96-4,2.94,4.05,24,3.28,29,5l8,1c2.33,1.14,5.16,4.92,8,6l10,2c1.81,1,3.91,4.27,6,5h8c3.76,1.34,6.23,6.69,10,8h10c4.13,1.43,7.43,6.67,12,8h26c3.15-1.06,5.4-5.69,8-7l8-1c4.18-1.6,7.61-6.6,12-8h34c29.3,7.57,55.36,27.54,70,50,4.38,6.72,13.51,13.07,17,20,2.47,4.91,7.14,41.23,5,50-2.64,10.81-5.4,24.43-8,34-.33,3.33-.67,6.67-1,10C744,197.91,731.29,204.76,730,218Z" />
  </g>
  <g id="paws">
    <path d="M762,741h14c3.82,5.08,10.09,4.7,11,13,6.49,6.92-2.76,34.1-11,39-5.63,3.34-14.6,3.26-20,4-2.35-2.79-6.34-3.52-9-6-2-1.88-3-5.07-5-7C741,759.56,747.43,754.72,762,741Z" />
    <path d="M696,742l14,1c5.59,8.25,18.27,17.64,14,35-.9,3.67-2.59,7.12-3,12-5.13,3.48-6.9,8.18-15,9-2.84,1.87-6.25.4-10,0-2.44-2.75-6.93-3.94-9-7-4.85-7.19-3-14.25-3-25,0-4.62-.9-12.07,1-15C687,745.85,691.35,745.37,696,742Z" />
    <path d="M168,772h4v2c9.15,12-3.91,32.15-14,33-4.46,3-10.17-.51-13-2-14.86-7.82-15.64-25.78-14-45a76.82,76.82,0,0,0,9-7c11.41-1.2,28.44.6,29,16C168.25,770.07,168.4,770,168,772Z" />
    <path d="M210,756c8.37,1.09,19.32-.28,25,8,1.47,2.14,1.37,4.23,3,6,.62,19.62-3.6,39.4-20,41-7.55,4.85-20.27-6-22-11q-.5-5.5-1-11c-.65-1.53-3.38-4.06-3-7C193.62,769.61,202.85,763,210,756Z" />
    <path d="M812,794c6.45,1.69,8,6,12,10,.44,14.87-12.42,37.89-24,39-2.73,2-7.11,2.08-12,2-3.26-4.67-8.18-5.73-9-13-8.08-12,15-34.28,23-35C804.58,795.39,809.6,795.72,812,794Z" />
    <path d="M100,802c16.45.07,20.55,10.41,30,17,2.41,7.8,8.52,13.36,1,27-15.16,10-26.23,5.59-34-9-3.14-5.9-6-9.14-5-15,.79-4.63-1.06-10.87,1-14C94.57,803.46,96.62,804.45,100,802Z" />
    <path d="M676,832c35.27-1,72.71,21.13,89,39,3.3,3.62,8,11.82,9,17,2,10.23-9.64,26.15-18,27-3.24,1.5-5.65,1-12,3-1.63.5-8.37-.51-10,0-10,3.14-19.5-4.36-25-7-4.4-2.11-8.88-1.64-13-4-16.68-9.56-28.31-21.6-41-35-.25-8,.15-17,0-29,3-1.94,5.91-6.59,9-8l4,1v-2C669.75,833.18,672.9,834.28,676,832Z" />
    <path d="M220,846c20.74-.6,37.48,2.15,39,20,6.38,10.06-6,22.84-10,27-19.33,20.08-42.62,30.3-69,37-17.78,4.52-42.68-6.62-43-20-1.65-2.88-2-15.28-2-22,5.5-3.67,7.71-11.13,13-15a171.32,171.32,0,0,1,28-16c10-4.56,22.84-7.74,34-10C212.9,846.41,216.65,848.16,220,846Z" />
  </g>
  <g id="eyes">
    <path d="M394,220l12,1c2.43,3.67,6.79,7.95,10,11,.57,7.26,1.54,12.31,1,20-1.85,1.6-.56,1.77-2,4-3.75,5.78-13.42,8-23,8-5.52-5-14-6.47-15-16C367.89,234.32,388.39,223.86,394,220Z" />
    <path d="M519,225c4.57-1.85,13.6-2,15-1,9.72,2.1,15.15,13.11,16,22-1.77,6.17-4.55,13.77-11,18-2.67,2.22-15.18,3.63-19,1-4.71-1.45-6.4-4.48-9-8C498,239.45,512.93,228,519,225Z" />
  </g>
  <g id="nose">
    <path d="M452,286c23.6-.69,42.77,3.83,51,19,2.25,4.15,6.82,7.93,4,15-2.67,6.69-9.46,14.93-15,19-1.4,1-3.87,1.78-5,3-2.44,2.64-6.93,5-10,7-26.53,17-66.3-13.26-66-43,6.23-4.11,9.57-12.07,17-15C435.67,288,446.62,289.72,452,286Z" />
  </g>
  <g id="Layer_5_Image" data-name="Layer 5 Image">
    <image id="Layer_5_Image-2" data-name="Layer 5 Image" width="928" height="994" xlink:href="bear-white2.png"/>
  </g>
</svg>
